<svg width="1024" height="1024" viewBox="0 0 1024 1024" fill="none" xmlns="http://www.w3.org/2000/svg"><g filter="url(#a)"><path d="M962 489.5h-37.5V362a52.5 52.5 0 0 0-52.5-52.5h-67.5V272a52.5 52.5 0 0 0-52.5-52.5h-90a52.5 52.5 0 0 0-52.5 52.5v217.5h-195V272a52.5 52.5 0 0 0-52.5-52.5h-90a52.5 52.5 0 0 0-52.5 52.5v37.5H152A52.5 52.5 0 0 0 99.5 362v127.5H62A22.5 22.5 0 0 0 39.5 512 22.5 22.5 0 0 0 62 534.5h37.5V662a52.5 52.5 0 0 0 52.5 52.5h67.5V752a52.5 52.5 0 0 0 52.5 52.5h90a52.5 52.5 0 0 0 52.5-52.5V534.5h195V752a52.5 52.5 0 0 0 52.5 52.5h90a52.5 52.5 0 0 0 52.5-52.5v-37.5H872a52.5 52.5 0 0 0 52.5-52.5V534.5H962a22.504 22.504 0 0 0 22.5-22.5 22.504 22.504 0 0 0-22.5-22.5m-810 180a7.497 7.497 0 0 1-7.5-7.5V362a7.497 7.497 0 0 1 7.5-7.5h67.5v315zM369.5 752a7.497 7.497 0 0 1-7.5 7.5h-90a7.497 7.497 0 0 1-7.5-7.5V272a7.497 7.497 0 0 1 7.5-7.5h90a7.497 7.497 0 0 1 7.5 7.5zm390 0a7.497 7.497 0 0 1-7.5 7.5h-90a7.497 7.497 0 0 1-7.5-7.5V272a7.497 7.497 0 0 1 7.5-7.5h90a7.497 7.497 0 0 1 7.5 7.5zm120-90a7.497 7.497 0 0 1-7.5 7.5h-67.5v-315H872a7.497 7.497 0 0 1 7.5 7.5z" fill="url(#b)"/></g><defs><linearGradient id="b" x1="39.5" y1="219.5" x2="1037.38" y2="661.112" gradientUnits="userSpaceOnUse"><stop stop-color="#E26930"/><stop offset=".605" stop-color="#F18938"/><stop offset="1" stop-color="#8AAEA2"/></linearGradient><filter id="a" x="28" y="32" width="968" height="968" filterUnits="userSpaceOnUse" color-interpolation-filters="sRGB"><feFlood flood-opacity="0" result="BackgroundImageFix"/><feColorMatrix in="SourceAlpha" values="0 0 0 0 0 0 0 0 0 0 0 0 0 0 0 0 0 0 127 0" result="hardAlpha"/><feOffset dy="4"/><feGaussianBlur stdDeviation="2"/><feComposite in2="hardAlpha" operator="out"/><feColorMatrix values="0 0 0 0 0 0 0 0 0 0 0 0 0 0 0 0 0 0 0.25 0"/><feBlend in2="BackgroundImageFix" result="effect1_dropShadow_3359_19"/><feBlend in="SourceGraphic" in2="effect1_dropShadow_3359_19" result="shape"/></filter></defs></svg>